<svg width="16" height="16" viewBox="0 0 16 16" fill="none" xmlns="http://www.w3.org/2000/svg">
<path fill-rule="evenodd" clip-rule="evenodd" d="M13.8336 13.6264C14.1096 13.6264 14.3336 13.8504 14.3336 14.1264C14.3336 14.4024 14.1096 14.6264 13.8336 14.6264H8.99824C8.72224 14.6264 8.49824 14.4024 8.49824 14.1264C8.49824 13.8504 8.72224 13.6264 8.99824 13.6264H13.8336ZM10.7441 2.43576C10.7774 2.46176 11.8928 3.32843 11.8928 3.32843C12.2981 3.56976 12.6148 4.0011 12.7348 4.51176C12.8541 5.0171 12.7674 5.53843 12.4894 5.97909C12.4876 5.98203 12.4857 5.98494 12.4793 5.99358L12.4743 6.00025C12.4292 6.05972 12.233 6.30776 11.243 7.54815C11.2338 7.56441 11.2233 7.57963 11.212 7.59443C11.1953 7.61624 11.1771 7.63628 11.1577 7.65453C11.0902 7.73956 11.0189 7.8289 10.9439 7.92283L10.7919 8.11313C10.4784 8.50579 10.1065 8.97139 9.66529 9.52364L9.43886 9.80705C8.58708 10.8732 7.49621 12.2382 6.09877 13.9864C5.79277 14.3678 5.3341 14.5898 4.84143 14.5958L2.41543 14.6264H2.40877C2.17743 14.6264 1.9761 14.4678 1.9221 14.2418L1.3761 11.9278C1.26343 11.4484 1.37543 10.9538 1.68277 10.5698L7.96277 2.7151C7.96543 2.71243 7.96744 2.7091 7.9701 2.70643C8.65877 1.8831 9.9041 1.76176 10.7441 2.43576ZM7.26259 5.19133L2.46343 11.1944C2.34943 11.3371 2.30743 11.5211 2.34943 11.6978L2.80343 13.6211L4.82943 13.5958C5.0221 13.5938 5.2001 13.5078 5.3181 13.3611C5.92576 12.6008 6.68947 11.6452 7.47467 10.6627L7.75247 10.315L8.03074 9.96681C8.76713 9.04526 9.49463 8.13471 10.1033 7.37258L7.26259 5.19133ZM8.7401 3.34443L7.88725 4.41L10.7278 6.59062C11.2745 5.9058 11.6342 5.45476 11.6674 5.41176C11.7768 5.23443 11.8194 4.98376 11.7621 4.74243C11.7034 4.4951 11.5494 4.28509 11.3274 4.15109C11.2801 4.11843 10.1568 3.24643 10.1221 3.21909C9.69944 2.88043 9.08277 2.9391 8.7401 3.34443Z" fill="#4F46E5"/>
</svg>
